# xmcd
#
# Track frame offsets: 
#        150
#        13247
#        25195
#        39957
#        55230
#        69475
#        83090
#        96675
#        109227
#        123335
#
# Disc length: 1829 seconds
#
# Revision: 2
# Processed by: cddbd v1.5.2PL0 Copyright (c) Steve Scherf et al.
# Submitted via: ExactAudioCopyFreeDBPlugin 1.0
#
DISCID=8207230a
DTITLE=Ernest Tubb - Retrospective, Volume 1
DYEAR=1900
DGENRE=Country
TTITLE0=Blue Eyed Elaine
TTITLE1=Walking The Floor Over You
TTITLE2=Solder's Last Letter
TTITLE3=It's Been So Long Darling
TTITLE4=Rainbow at Midnight
TTITLE5=Filipino Baby
TTITLE6=Let's Say Goodbye Like We Said Hello
TTITLE7=Blue Christmas
TTITLE8=Unfaithful One
TTITLE9=Give Me A Little Old Fashioned Love
EXTD=
EXTT0=Ernest Tubb
EXTT1=Ernest Tubb
EXTT2=Ernest Tubb
EXTT3=Ernest Tubb
EXTT4=Ernest Tubb
EXTT5=Ernest Tubb
EXTT6=Ernest Tubb
EXTT7=Ernest Tubb
EXTT8=Ernest Tubb
EXTT9=Ernest Tubb
PLAYORDER=
